<svg width="128" height="128" viewBox="0 0 128 128" fill="none" xmlns="http://www.w3.org/2000/svg">
<path d="M57.2 128C42.3733 124.267 30.1333 115.76 20.48 102.48C10.8267 89.2 6 74.4533 6 58.24V19.2L57.2 0L108.4 19.2V58.24C108.4 59.3067 108.373 60.3733 108.32 61.44C108.267 62.5067 108.187 63.5733 108.08 64.64C107.12 64.4267 106.133 64.2667 105.12 64.16C104.107 64.0533 103.067 64 102 64C93.1467 64 85.6 67.0933 79.36 73.28C73.12 79.4667 70 87.04 70 96V123.2C67.9733 124.267 65.8933 125.2 63.76 126C61.6267 126.8 59.44 127.467 57.2 128ZM88.24 128C86.7467 128 85.4667 127.467 84.4 126.4C83.3333 125.333 82.8 124.053 82.8 122.56V101.44C82.8 99.9467 83.3333 98.6667 84.4 97.6C85.4667 96.5333 86.7467 96 88.24 96H89.2V89.6C89.2 86.08 90.4533 83.0667 92.96 80.56C95.4667 78.0533 98.48 76.8 102 76.8C105.52 76.8 108.533 78.0533 111.04 80.56C113.547 83.0667 114.8 86.08 114.8 89.6V96H115.76C117.253 96 118.533 96.5333 119.6 97.6C120.667 98.6667 121.2 99.9467 121.2 101.44V122.56C121.2 124.053 120.667 125.333 119.6 126.4C118.533 127.467 117.253 128 115.76 128H88.24ZM95.6 96H108.4V89.6C108.4 87.7867 107.787 86.2667 106.56 85.04C105.333 83.8133 103.813 83.2 102 83.2C100.187 83.2 98.6667 83.8133 97.44 85.04C96.2133 86.2667 95.6 87.7867 95.6 89.6V96Z" fill="#274FB4"/>
</svg>
