<svg width="52" height="48" viewBox="0 0 52 48" fill="none" xmlns="http://www.w3.org/2000/svg">
<path d="M22.1404 6.67085L26.404 4.19831C26.7117 4.01399 27.0279 3.91549 27.3527 3.9028C27.6775 3.89011 27.9893 3.94477 28.2882 4.06677C28.5871 4.18878 28.848 4.36796 29.0712 4.60432C29.2943 4.84068 29.4512 5.13236 29.542 5.47935L30.8572 10.2293L34.5115 13.3772C34.889 13.6863 35.1294 14.0701 35.2327 14.5288C35.3361 14.9874 35.2996 15.4326 35.1234 15.8643C35.042 16.0635 34.9316 16.2509 34.7922 16.4264C34.6528 16.6019 34.4793 16.7539 34.272 16.8823L29.9464 19.6491L28.3786 23.7742C28.158 24.3621 27.7671 24.774 27.2059 25.0098C26.6448 25.2456 26.0986 25.2551 25.5672 25.0382C25.534 25.0246 25.3616 24.9252 25.0498 24.7398L21.1002 21.6746L16.1338 21.1C16.0372 21.0993 15.9375 21.0828 15.8344 21.0504C15.7314 21.0181 15.6384 20.985 15.5554 20.9511C15.0241 20.7342 14.6405 20.3451 14.4047 19.784C14.1689 19.2228 14.1779 18.6551 14.4318 18.0808L16.2089 14.0121L15.0702 9.04361C15.0119 8.80675 14.9944 8.57684 15.0176 8.35387C15.0408 8.13091 15.0931 7.91981 15.1744 7.72057C15.3439 7.30548 15.6218 6.9686 16.0083 6.7099C16.3948 6.45121 16.8344 6.33526 17.3271 6.36206L22.1404 6.67085Z" fill="#99E6FC"/>
<path d="M7.41409 30.7918L8.68054 26.0286C8.76778 25.6807 8.92174 25.3874 9.14243 25.1488C9.36312 24.9102 9.62226 24.7283 9.91986 24.6033C10.2175 24.4782 10.5287 24.4204 10.8536 24.4297C11.1785 24.4391 11.4957 24.5344 11.8053 24.7155L16.094 27.1443L20.9039 26.7862C21.3894 26.7378 21.8308 26.8393 22.2281 27.0905C22.6255 27.3418 22.9145 27.6823 23.0952 28.1122C23.1785 28.3106 23.233 28.5211 23.2585 28.7438C23.284 28.9666 23.2688 29.1966 23.213 29.4341L22.1108 34.4492L23.9191 38.4746C24.1788 39.0463 24.1936 39.614 23.9635 40.1775C23.7335 40.741 23.3539 41.134 22.8249 41.3563C22.7918 41.3702 22.5995 41.4218 22.248 41.5112L17.2878 42.1366L13.3697 45.242C13.301 45.3098 13.2187 45.3687 13.123 45.4187C13.0273 45.4686 12.9381 45.511 12.8554 45.5457C12.3264 45.768 11.7801 45.7642 11.2165 45.5341C10.653 45.3041 10.2579 44.8962 10.0313 44.3106L8.41093 40.177L4.09244 37.469C3.88376 37.3427 3.70879 37.1925 3.56756 37.0185C3.42632 36.8444 3.31401 36.6581 3.23064 36.4597C3.05695 36.0464 3.01529 35.6116 3.10564 35.1554C3.196 34.6992 3.42484 34.3064 3.79217 33.977L7.41409 30.7918Z" fill="#FEE45A"/>
<path d="M35.8655 27.5993L40.1291 25.1268C40.4368 24.9425 40.753 24.844 41.0778 24.8313C41.4026 24.8186 41.7144 24.8732 42.0133 24.9952C42.3122 25.1172 42.5731 25.2964 42.7963 25.5328C43.0194 25.7691 43.1763 26.0608 43.2671 26.4078L44.5823 31.1577L48.2366 34.3057C48.6141 34.6148 48.8545 34.9986 48.9578 35.4573C49.0611 35.9159 49.0247 36.3611 48.8485 36.7927C48.7671 36.992 48.6567 37.1794 48.5173 37.3549C48.3778 37.5304 48.2044 37.6824 47.9971 37.8108L43.6715 40.5776L42.1037 44.7027C41.8831 45.2906 41.4922 45.7025 40.931 45.9383C40.3699 46.1741 39.8236 46.1835 39.2923 45.9666C39.2591 45.9531 39.0867 45.8536 38.7749 45.6682L34.8253 42.6031L29.8589 42.0285C29.7623 42.0278 29.6626 42.0113 29.5595 41.9789C29.4565 41.9465 29.3635 41.9134 29.2805 41.8795C28.7492 41.6626 28.3656 41.2736 28.1298 40.7125C27.894 40.1513 27.903 39.5836 28.1569 39.0092L29.934 34.9406L28.7953 29.9721C28.737 29.7352 28.7195 29.5053 28.7427 29.2823C28.7659 29.0594 28.8182 28.8483 28.8995 28.649C29.069 28.234 29.3469 27.8971 29.7334 27.6384C30.1199 27.3797 30.5595 27.2637 31.0522 27.2905L35.8655 27.5993Z" fill="#FE93D3"/>
</svg>
