<svg width="100" height="100" viewBox="0 0 100 100" fill="none" xmlns="http://www.w3.org/2000/svg">
<path d="M17 35.1488V54.2976H20.0885H23.177V46.0204V37.7432L28.9217 37.4961C35.7164 37.1873 38.0637 36.0754 39.855 32.3692C41.4611 29.0953 41.4611 23.8449 39.9786 20.9417C39.2373 19.5827 37.8166 18.2238 36.1488 17.359C33.7398 16.1236 32.5044 16 25.2155 16H17V35.1488ZM30.2806 21.5594C31.6396 21.8682 33.2456 22.733 33.8633 23.4742C35.4076 25.3891 35.2223 28.7247 33.3691 30.5161C32.072 31.875 31.3307 32.0603 27.501 32.0603H23.177V26.9334C23.177 24.0919 23.3623 21.5594 23.6094 21.374C24.1654 20.7563 27.3774 20.8799 30.2806 21.5594Z" fill="white"/>
<path d="M67.7135 33.1104C65.5515 39.8433 63.6366 45.8351 63.5131 46.391C63.2042 47.4411 63.8837 47.5029 71.8521 47.5029H80.4999L76.4849 34.9635C74.2611 28.107 72.2845 22.1153 72.0374 21.6829C71.7903 21.2505 69.8754 26.4392 67.7135 33.1104Z" fill="white"/>
<path d="M59.3744 32.4927C58.6949 37.4961 57.1507 41.2641 53.9386 45.4644L50.8501 49.5413L52.7032 51.3326L54.4945 53.124L57.0271 50.0972C61.5364 44.785 64.5013 37.4961 64.5631 31.875C64.5631 29.6512 64.5013 29.5895 62.1541 29.5895C59.8068 29.5895 59.8068 29.5895 59.3744 32.4927Z" fill="white"/>
<path d="M61.4746 52.1974C61.104 53.0622 60.8569 53.8652 60.8569 54.0506C60.8569 54.1741 65.7368 54.2976 71.6667 54.2976C77.5967 54.2976 82.4766 54.1123 82.4766 53.8035C82.4766 53.5564 82.2912 52.7534 82.1059 51.9504C81.7353 50.5914 81.55 50.5914 71.9138 50.5914H62.0923L61.4746 52.1974Z" fill="white"/>
<path d="M22.4975 60.0423C19.3472 62.0807 17.6177 66.034 17.6177 71.0374C17.6177 76.9056 18.1118 78.6352 20.4591 81.4148C24.4742 86.0476 32.319 86.2329 36.5194 81.7237C41.7699 76.1643 40.4727 63.0073 34.2957 59.7334C31.1454 58.0656 25.2154 58.1892 22.4975 60.0423ZM32.875 64.428C35.7164 67.1459 35.8399 75.7319 33.0603 78.6969C30.4041 81.5384 25.5243 81.2913 23.4859 78.141C20.6444 73.8171 22.1269 64.8604 25.8949 63.1926C28.2422 62.1425 31.0836 62.6366 32.875 64.428Z" fill="white"/>
<path d="M45.4145 30.8249C45.4145 32.7398 43.685 36.5078 41.9554 38.2991L40.4729 39.8434L42.3878 41.6965L44.3027 43.4878L46.1558 41.3259C48.4413 38.6697 50.1708 34.9635 50.4797 32.0603C50.665 29.8983 50.665 29.8983 48.0707 29.713C45.7234 29.5277 45.4145 29.6513 45.4145 30.8249Z" fill="white"/>
<path d="M52.0237 32.3691C51.5296 35.7047 49.8 39.2874 47.2057 42.2524L45.229 44.4761L46.6497 45.9586C47.4527 46.8234 48.4411 47.5029 48.8735 47.5029C50.0471 47.5029 53.8151 42.623 55.3593 39.2256C56.0388 37.6196 56.7801 34.7782 56.9654 32.9251L57.336 29.5895H54.8652C52.3944 29.5895 52.3944 29.5895 52.0237 32.3691Z" fill="white"/>
<path d="M43.5613 71.5933V84.5651H45.7232H47.8852V79.0058V73.4464H52.8268H57.7685V71.2845V69.1225H52.8268H47.8852V66.034V62.9455H53.4445H59.0039V60.7835V58.6215H51.2826H43.5613V71.5933Z" fill="white"/>
<path d="M62.71 71.5933V84.5651H65.1808H67.6516V79.0058V73.4464H72.2844H76.9171V71.2845V69.1225H72.2844H67.6516V66.034V62.9455H73.2109H78.7703V60.7835V58.6215H70.7401H62.71V71.5933Z" fill="white"/>
</svg>
