<svg width="64" height="66" viewBox="0 0 64 66" fill="none" xmlns="http://www.w3.org/2000/svg">
<path d="M12.7885 10.0035L19.1544 1.76198C19.6091 1.15571 20.1491 0.710475 20.7743 0.426285C21.3995 0.142095 22.0531 0 22.7352 0C23.4172 0 24.0709 0.142095 24.6961 0.426285C25.3213 0.710475 25.8613 1.15571 26.316 1.76198L32.6818 10.0035L42.3443 13.2432C43.3295 13.5464 44.1063 14.1053 44.6746 14.92C45.243 15.7346 45.5272 16.6346 45.5272 17.6198C45.5272 18.0745 45.4609 18.5292 45.3283 18.9839C45.1957 19.4386 44.9778 19.8743 44.6746 20.2912L38.4225 29.1579L38.6498 38.4793C38.6877 39.8055 38.252 40.9233 37.3426 41.8327C36.4331 42.7422 35.3722 43.1969 34.1596 43.1969C34.0838 43.1969 33.667 43.14 32.9092 43.0263L22.7352 40.1844L12.5612 43.0263C12.3717 43.1021 12.1633 43.1495 11.936 43.1684C11.7086 43.1874 11.5002 43.1969 11.3108 43.1969C10.0982 43.1969 9.03724 42.7422 8.12783 41.8327C7.21842 40.9233 6.78267 39.8055 6.82056 38.4793L7.04791 29.101L0.85257 20.2912C0.549434 19.8743 0.331555 19.4386 0.198933 18.9839C0.066311 18.5292 0 18.0745 0 17.6198C0 16.6725 0.274717 15.7915 0.824151 14.9768C1.37358 14.1621 2.1409 13.5843 3.12609 13.2432L12.7885 10.0035Z" fill="#A2DBEF"/>
<path d="M42.8502 65.1L36.0991 59.0873C33.5674 56.8018 31.3961 54.7624 29.5853 52.9691C27.7744 51.1759 26.2801 49.4881 25.1021 47.9058C23.9242 46.3235 23.0627 44.7939 22.5177 43.3171C21.9727 41.8403 21.7002 40.2932 21.7002 38.6757C21.7002 35.3705 22.8078 32.6191 25.023 30.4214C27.2382 28.2238 29.9984 27.125 33.3037 27.125C35.1321 27.125 36.8726 27.5118 38.5253 28.2853C40.1779 29.0589 41.6195 30.1489 42.8502 31.5554C44.0809 30.1489 45.5225 29.0589 47.1751 28.2853C48.8277 27.5118 50.5683 27.125 52.3967 27.125C55.7019 27.125 58.4621 28.2238 60.6774 30.4214C62.8926 32.6191 64.0002 35.3705 64.0002 38.6757C64.0002 40.2932 63.7277 41.8403 63.1827 43.3171C62.6376 44.7939 61.7762 46.3235 60.5982 47.9058C59.4203 49.4881 57.9259 51.1759 56.1151 52.9691C54.3042 54.7624 52.133 56.8018 49.6013 59.0873L42.8502 65.1ZM31.9324 49.2771H53.768C54.3306 48.6794 54.8405 48.1255 55.2976 47.6157C55.7547 47.1058 56.1766 46.6048 56.5634 46.1125H29.137C29.5238 46.6048 29.9457 47.1058 30.4028 47.6157C30.8599 48.1255 31.3698 48.6794 31.9324 49.2771ZM42.8502 59.4038C44.116 58.2786 45.3027 57.2325 46.4103 56.2656C47.518 55.2986 48.5289 54.3756 49.4431 53.4966H36.2573C37.1715 54.3756 38.1824 55.2986 39.29 56.2656C40.3976 57.2325 41.5844 58.2786 42.8502 59.4038Z" fill="#F8BBA8"/>
<path d="M19.3747 17.3652C18.3798 17.3741 17.8413 16.9176 17.8302 15.732C17.8191 14.5421 18.6169 13.5715 19.6118 13.5626C20.6046 13.5537 21.4223 14.5088 21.4334 15.6988C21.4445 16.8844 20.3697 17.3541 19.3747 17.3652Z" fill="#2F2F2F"/>
<path d="M28.519 14.4129C28.2043 14.7233 28.0038 15.1931 28.0049 15.7194C28.0084 16.651 28.644 17.4051 29.4258 17.4036C30.2058 17.4016 30.838 16.6439 30.8363 15.7123C30.8356 15.3232 30.7241 14.9664 30.5389 14.6814C29.7881 14.3453 29.3203 14.3369 28.519 14.4129Z" fill="#2F2F2F"/>
<path d="M16.2749 20.9893C16.5882 21.569 16.9226 22.1385 17.3434 22.6466C18.0761 23.5314 18.8512 23.7577 19.1484 23.8377C20.1668 24.112 21.2653 23.527 21.9959 22.8657C22.816 22.1236 23.2929 21.3662 24.5277 21.2445C26.0536 21.0938 27.158 21.9643 27.6746 22.3031C28.686 22.9664 30.0043 23.3548 31.1005 22.628C32.7771 21.5167 32.9231 19.5163 33.0368 18.7305" stroke="#2F2F2F" stroke-width="0.571866" stroke-linecap="round" stroke-linejoin="round"/>
</svg>
