<svg width="147" height="66" viewBox="0 0 147 66" fill="none" xmlns="http://www.w3.org/2000/svg">
<g clip-path="url(#clip0_8_88)">
<path d="M75.3001 23.2C75.3001 23.4 75.3001 23.6 75.4001 23.8C75.4001 24 75.5001 24.1 75.6001 24.3C75.7001 24.4 75.9001 24.5 76.0001 24.6C76.2001 24.7 76.4001 24.7 76.6001 24.7C76.9001 24.7 77.2001 24.6 77.4001 24.4C77.7001 24.2 77.8001 23.8 77.8001 23.5C77.8001 23.3 77.8001 23.1 77.7001 22.9C77.6001 22.7 77.5001 22.6 77.4001 22.5C77.2001 22.4 77.1001 22.2 76.8001 22.1C76.5001 22 76.2001 21.9 76.0001 21.8C75.6001 21.7 75.2001 21.5 74.8001 21.3C74.5001 21.1 74.2001 20.9 74.0001 20.7C73.8001 20.5 73.6001 20.2 73.5001 19.9C73.4001 19.5 73.3001 19.2 73.3001 18.8C73.2001 18 73.5001 17.2 74.1001 16.6C74.7001 16.1 75.5001 15.8 76.4001 15.9C76.8001 15.9 77.2001 15.9 77.6001 16C78.0001 16.1 78.3001 16.3 78.6001 16.5C78.9001 16.7 79.1001 17 79.2001 17.3C79.4001 17.7 79.4001 18.1 79.4001 18.5V18.8H77.5001C77.5001 18.4 77.4001 18 77.3001 17.7C77.1001 17.4 76.8001 17.3 76.5001 17.3C76.3001 17.3 76.1001 17.3 75.9001 17.4C75.8001 17.5 75.6001 17.5 75.5001 17.7C75.4001 17.8 75.4001 17.9 75.3001 18.1V18.5C75.3001 18.8 75.4001 19 75.5001 19.3C75.7001 19.6 76.0001 19.8 76.3001 19.9L77.8001 20.6C78.1001 20.7 78.4001 20.9 78.7001 21.1L79.3001 21.7C79.4001 21.9 79.5001 22.1 79.6001 22.4C79.7001 22.7 79.7001 23 79.7001 23.2C79.8001 24.1 79.4001 24.9 78.8001 25.5C78.1001 26 77.2001 26.3 76.3001 26.2C75.4001 26.3 74.5001 26 73.9001 25.5C73.4001 24.9 73.1001 24.2 73.2001 23.4V23H75.2001L75.3001 23.2Z" fill="#1D1D1B"/>
<path d="M81 16.1H83V26H81V16.1Z" fill="#1D1D1B"/>
<path d="M89.3 22.9V16.1H91.1V26H88.8L86.3 19V26H84.5V16.1H86.8L89.3 22.9Z" fill="#1D1D1B"/>
<path d="M96.9 18.5C96.9 18.3 96.8 18.1 96.7 18C96.6 17.8 96.5 17.7 96.3 17.6C96.1 17.5 96 17.4 95.8 17.4C95.3 17.4 94.9 17.7 94.8 18.2C94.5 19.1 94.4 20 94.5 20.9C94.5 21.5 94.5 22 94.6 22.5C94.6 22.9 94.7 23.3 94.8 23.7C94.9 24 95 24.3 95.2 24.5C95.4 24.7 95.6 24.8 95.9 24.8C96 24.8 96.2 24.8 96.3 24.7C96.5 24.6 96.6 24.5 96.7 24.4C96.8 24.3 96.9 24.1 97 23.9C97.1 23.7 97.1 23.4 97.1 23.2V22.2H95.8V20.7H99V26H97.5V25.1C97.3 25.5 97 25.7 96.6 25.9C96.2 26.1 95.8 26.2 95.4 26.1C94.9 26.1 94.4 26 93.9 25.8C93.5 25.6 93.2 25.2 93 24.8C92.8 24.3 92.6 23.7 92.6 23.2C92.5 22.4 92.5 21.7 92.5 20.9C92.5 20.2 92.5 19.4 92.7 18.7C92.8 18.1 93 17.6 93.3 17.1C93.5 16.7 93.9 16.4 94.3 16.1C94.8 15.9 95.3 15.8 95.9 15.8C96.8 15.7 97.6 16 98.3 16.6C98.8 17.3 99.1 18.1 99 18.9H97.1C96.9 18.8 96.9 18.6 96.9 18.5Z" fill="#1D1D1B"/>
<path d="M104.7 16.1L107.3 26H105.2L104.7 23.9H102.1L101.6 26H99.5L102.1 16.1H104.7ZM104.4 22.3L103.4 17.8L102.4 22.3H104.4Z" fill="#1D1D1B"/>
<path d="M111.5 16.1C111.9 16.1 112.4 16.2 112.8 16.4C113.1 16.6 113.4 16.8 113.6 17.1C113.8 17.4 114 17.7 114.1 18C114.2 18.4 114.2 18.7 114.2 19.1C114.2 19.6 114.1 20 114 20.4C113.9 20.8 113.6 21.1 113.4 21.3C113.1 21.5 112.8 21.7 112.4 21.8C112 21.9 111.5 22 111.1 22H110V26H108V16.1H111.5ZM110.9 20.6C111.3 20.6 111.6 20.5 111.9 20.2C112.2 19.9 112.3 19.5 112.3 19.1C112.3 18.7 112.2 18.3 112 18C111.7 17.7 111.3 17.6 110.9 17.6H110V20.6H110.9Z" fill="#1D1D1B"/>
<path d="M115.1 19C115.1 18.4 115.3 17.9 115.6 17.4C115.8 17 116.2 16.6 116.6 16.3C117.7 15.8 119 15.8 120.2 16.3C120.6 16.5 121 16.9 121.2 17.4C121.4 17.9 121.6 18.5 121.7 19C121.8 19.7 121.8 20.4 121.8 21.1C121.8 21.9 121.8 22.6 121.7 23.2C121.7 23.8 121.5 24.3 121.2 24.8C121 25.2 120.6 25.6 120.2 25.8C119.1 26.3 117.8 26.3 116.6 25.8C116.2 25.6 115.8 25.2 115.6 24.8C115.3 24.3 115.2 23.7 115.1 23.2C115 22.5 115 21.8 115 21.1C115 20.3 115.1 19.6 115.1 19ZM117.1 22.7C117.1 23.1 117.2 23.5 117.3 23.8C117.4 24.1 117.5 24.3 117.7 24.4C118.1 24.7 118.7 24.7 119.1 24.4C119.3 24.2 119.4 24 119.5 23.8C119.6 23.4 119.7 23 119.7 22.7V19.3C119.7 18.9 119.6 18.5 119.5 18.2C119.4 17.9 119.3 17.7 119.1 17.6C118.7 17.3 118.1 17.3 117.7 17.6C117.5 17.8 117.4 18 117.3 18.2C117.2 18.6 117.1 19 117.1 19.3C117.1 19.8 117 20.3 117 21C117 21.7 117 22.3 117.1 22.7Z" fill="#1D1D1B"/>
<path d="M126.7 16.1C127.4 16.1 128.1 16.3 128.7 16.7C129.2 17.2 129.5 17.9 129.4 18.6C129.4 19.2 129.3 19.7 129 20.2C128.7 20.6 128.3 20.9 127.7 21C128.1 21 128.5 21.2 128.8 21.5C129.1 21.8 129.2 22.3 129.2 22.7V24C129.2 24.5 129.2 24.9 129.3 25.2C129.3 25.4 129.5 25.6 129.7 25.8V26H127.5C127.4 25.9 127.3 25.7 127.3 25.5C127.3 25.3 127.3 25.1 127.2 24.9L127.1 23C127.1 22.7 127 22.3 126.8 22.1C126.6 21.9 126.2 21.7 125.9 21.8H125V26H123V16.1H126.7ZM125.8 20.4C126.2 20.4 126.6 20.3 126.9 20.1C127.2 19.8 127.3 19.4 127.3 18.9C127.4 18.2 126.9 17.6 126.3 17.5H125V20.4H125.8Z" fill="#1D1D1B"/>
<path d="M136.3 17.7H132.7V20H136V21.6H132.7V24.3H136.4V26H130.7V16.1H136.3V17.7Z" fill="#1D1D1B"/>
<path d="M73.8 28H75.8V37.9H73.8V28Z" fill="#1D1D1B"/>
<path d="M82 34.8V28H83.8V37.9H81.5L79 30.9V37.9H77.2V28H79.5L82 34.8Z" fill="#1D1D1B"/>
<path d="M86.9 35.1C86.9 35.3 86.9 35.5 87 35.7C87 35.9 87.1 36 87.2 36.2C87.3 36.3 87.5 36.4 87.6 36.5C87.8 36.6 88 36.6 88.2 36.6C88.5 36.6 88.8 36.5 89 36.3C89.3 36.1 89.4 35.7 89.4 35.4C89.4 35.2 89.4 35 89.3 34.8C89.2 34.6 89.1 34.5 89 34.4C88.8 34.3 88.7 34.1 88.4 34C88.1 33.9 87.8 33.8 87.6 33.7C87.2 33.6 86.8 33.4 86.4 33.2C86.1 33 85.8 32.8 85.6 32.6C85.4 32.4 85.2 32.1 85.1 31.8C85 31.5 84.9 31.1 84.9 30.7C84.8 29.9 85.1 29.1 85.7 28.5C86.3 28 87.1 27.7 88 27.8C88.4 27.8 88.8 27.8 89.2 27.9C89.6 28 89.9 28.1 90.2 28.4C90.5 28.6 90.7 28.9 90.8 29.2C91 29.6 91 30 91 30.4V30.7H89.1C89.1 30.3 89 29.9 88.9 29.6C88.7 29.3 88.4 29.2 88.1 29.2C87.9 29.2 87.7 29.2 87.5 29.3C87.2 29.4 87 29.6 87 29.9V30.3C87 30.6 87.1 30.8 87.2 31.1C87.4 31.4 87.7 31.6 88 31.7L89.5 32.4C89.8 32.5 90.1 32.7 90.4 32.9L91 33.5C91.1 33.7 91.2 33.9 91.3 34.2C91.4 34.5 91.4 34.8 91.4 35C91.5 35.9 91.1 36.7 90.5 37.3C89.8 37.8 88.9 38.1 88 38C87.1 38.1 86.2 37.8 85.6 37.3C85.1 36.7 84.8 36 84.9 35.2V34.8H86.9V35.1Z" fill="#1D1D1B"/>
<path d="M98.3 29.7H96.1V38H94.1V29.7H92V28H98.3V29.7Z" fill="#1D1D1B"/>
<path d="M99.3 28H101.3V37.9H99.3V28Z" fill="#1D1D1B"/>
<path d="M108.6 29.7H106.4V38H104.4V29.7H102.2V28H108.5L108.6 29.7Z" fill="#1D1D1B"/>
<path d="M111.4 34.9V35.6C111.4 35.8 111.5 36 111.6 36.1C111.7 36.3 111.8 36.4 112 36.5C112.4 36.7 112.8 36.7 113.2 36.5C113.3 36.4 113.5 36.3 113.6 36.1C113.7 35.9 113.8 35.7 113.8 35.6V28H115.8V34.9C115.8 35.4 115.7 36 115.5 36.5C115.3 36.9 115.1 37.2 114.8 37.5C114.5 37.7 114.2 37.9 113.8 38C113.4 38.1 113 38.1 112.6 38.1C112.2 38.1 111.8 38.1 111.4 38C110.6 37.9 110 37.3 109.7 36.6C109.5 36.1 109.4 35.5 109.4 35V28H111.4V34.9Z" fill="#1D1D1B"/>
<path d="M122.8 29.7H120.6V38H118.6V29.7H116.4V28H122.8V29.7Z" fill="#1D1D1B"/>
<path d="M129.2 29.7H125.7V32H129V33.6H125.7V36.3H129.4V37.9H123.7V28H129.3L129.2 29.7Z" fill="#1D1D1B"/>
<path d="M133.6 30.9C133.7 30.3 133.8 29.8 134.1 29.3C134.3 28.9 134.7 28.5 135.1 28.2C136.2 27.7 137.5 27.7 138.7 28.2C139.1 28.5 139.5 28.8 139.7 29.3C140 29.8 140.1 30.4 140.2 30.9C140.3 31.6 140.3 32.3 140.3 33C140.3 33.8 140.3 34.5 140.2 35.1C140.1 35.7 140 36.2 139.7 36.7C139.5 37.1 139.1 37.5 138.7 37.7C137.5 38.2 136.3 38.2 135.1 37.7C134.7 37.5 134.3 37.1 134.1 36.7C133.8 36.2 133.7 35.6 133.6 35.1C133.5 34.4 133.5 33.7 133.5 33C133.5 32.3 133.5 31.6 133.6 30.9ZM135.5 34.7C135.5 35.1 135.6 35.5 135.7 35.8C135.8 36.1 135.9 36.3 136.1 36.4C136.5 36.7 137.1 36.7 137.5 36.4C137.7 36.2 137.8 36 137.9 35.8C138 35.4 138.1 35 138.1 34.7V31.3C138.1 30.9 138 30.5 137.9 30.2C137.8 29.9 137.7 29.7 137.5 29.6C137.1 29.3 136.5 29.3 136.1 29.6C135.9 29.8 135.8 30 135.7 30.2C135.6 30.6 135.5 31 135.5 31.3V34.7Z" fill="#1D1D1B"/>
<path d="M147 28V29.6H143.4V32H146.7V33.6H143.4V38H141.4V28H147Z" fill="#1D1D1B"/>
<path d="M79.5001 41.6H77.3001V49.9H75.3001V41.6H73.1001V40H79.4001L79.5001 41.6Z" fill="#1D1D1B"/>
<path d="M85.8999 41.6H82.3999V43.9H85.6999V45.5H82.3999V48.2H86.0999V49.8H80.3999V39.9H85.9999L85.8999 41.6Z" fill="#1D1D1B"/>
<path d="M91.1 41.7C90.8 41.2 90.1 41 89.6 41.4C89.4 41.6 89.3 41.8 89.2 42.1C89.1 42.5 89 42.9 89 43.3C89 43.8 88.9001 44.4 88.9001 45.1C88.9001 45.7 88.9 46.3 89 46.9C89 47.3 89.1 47.6 89.2 48C89.3 48.2 89.4 48.4 89.6 48.5C89.8 48.6 90 48.6 90.2 48.6C90.4 48.6 90.5 48.6 90.7 48.5C90.9 48.4 91 48.3 91.1 48.1C91.2 47.9 91.3001 47.6 91.4001 47.3C91.5001 46.9 91.5 46.4 91.5 46H93.5C93.5 46.5 93.5001 47 93.4001 47.5C93.3001 47.9 93.2001 48.4 92.9001 48.8C92.7001 49.2 92.3001 49.5 91.9001 49.6C90.8001 50 89.6 50 88.5 49.5C88.1 49.3 87.7 48.9 87.5 48.5C87.2 48.1 87 47.5 87 47C86.9 45.6 86.9 44.2 87 42.8C87.1 42.2 87.2 41.7 87.5 41.2C87.7 40.7 88.1 40.4 88.5 40.1C89.1 39.8 89.7001 39.7 90.3001 39.7C90.9001 39.7 91.5 39.8 92 40C92.4 40.2 92.7001 40.5 92.9001 40.9C93.1 41.3 93.2001 41.6 93.3001 42.1C93.4001 42.5 93.4001 42.9 93.4001 43.3H91.4001C91.4001 42.7 91.3 42.2 91.1 41.7Z" fill="#1D1D1B"/>
<path d="M96.6001 39.9V43.7H98.9001V39.9H100.9V49.8H98.9001V45.4H96.6001V49.8H94.6001V39.9H96.6001Z" fill="#1D1D1B"/>
<path d="M107.3 46.7V39.9H109.1V49.8H106.8L104.3 42.8V49.8H102.5V39.9H104.8L107.3 46.7Z" fill="#1D1D1B"/>
<path d="M110.4 42.8C110.5 42.2 110.6 41.7 110.9 41.2C111.1 40.8 111.5 40.4 111.9 40.1C113 39.6 114.3 39.6 115.5 40.1C115.9 40.4 116.3 40.7 116.5 41.2C116.8 41.7 116.9 42.3 117 42.8C117.1 43.5 117.1 44.2 117.1 44.9C117.1 45.6 117.1 46.3 117 47C116.9 47.6 116.8 48.1 116.5 48.6C116.3 49 115.9 49.4 115.5 49.6C114.9 49.9 114.3 50 113.7 50C113.1 50 112.5 49.9 111.9 49.6C111.5 49.4 111.1 49 110.9 48.6C110.6 48.1 110.5 47.5 110.4 47C110.3 45.6 110.3 44.2 110.4 42.8ZM112.4 46.6C112.4 47 112.5 47.4 112.6 47.7C112.7 48 112.8 48.2 113 48.3C113.4 48.6 114 48.6 114.4 48.3C114.6 48.1 114.7 47.9 114.8 47.7C114.9 47.3 115 46.9 115 46.6V43.2C115 42.8 114.9 42.4 114.8 42.1C114.7 41.8 114.6 41.6 114.4 41.5C114 41.2 113.4 41.2 113 41.5C112.8 41.7 112.7 41.9 112.6 42.1C112.5 42.5 112.4 42.9 112.4 43.2V44.9C112.3 45.6 112.3 46.1 112.4 46.6Z" fill="#1D1D1B"/>
<path d="M118.4 39.9H120.4V48.2H124V49.8H118.4V39.9Z" fill="#1D1D1B"/>
<path d="M124.7 42.8C124.8 42.2 124.9 41.7 125.2 41.2C125.4 40.8 125.8 40.4 126.2 40.1C127.3 39.6 128.6 39.6 129.8 40.1C130.2 40.4 130.6 40.7 130.8 41.2C131.1 41.7 131.2 42.3 131.3 42.8C131.4 43.5 131.4 44.2 131.4 44.9C131.4 45.6 131.4 46.3 131.3 47C131.2 47.6 131.1 48.1 130.8 48.6C130.6 49 130.2 49.4 129.8 49.6C129.2 49.9 128.6 50 128 50C127.4 50 126.8 49.9 126.2 49.6C125.8 49.4 125.4 49 125.2 48.6C124.9 48.1 124.8 47.5 124.7 47C124.5 45.6 124.5 44.2 124.7 42.8ZM126.6 46.6C126.6 47 126.7 47.4 126.8 47.7C127 48.3 127.7 48.7 128.4 48.5C128.5 48.5 128.6 48.4 128.7 48.4C128.9 48.2 129 48 129.1 47.8C129.2 47.4 129.3 47 129.3 46.7V43.3C129.3 42.9 129.2 42.5 129.1 42.2C129 41.9 128.9 41.7 128.7 41.6C128.3 41.3 127.7 41.3 127.3 41.6C127.1 41.8 127 42 126.9 42.2C126.8 42.6 126.7 43 126.7 43.3V45C126.6 45.6 126.6 46.1 126.6 46.6Z" fill="#1D1D1B"/>
<path d="M136.9 42.3C136.9 42.1 136.8 41.9 136.7 41.8C136.6 41.6 136.5 41.5 136.3 41.4C136.1 41.3 136 41.2 135.8 41.2C135.3 41.2 134.9 41.5 134.8 42C134.5 42.9 134.4 43.8 134.5 44.7C134.5 45.3 134.5 45.8 134.6 46.3C134.6 46.7 134.7 47.1 134.8 47.5C134.9 47.8 135 48.1 135.2 48.3C135.4 48.5 135.6 48.6 135.9 48.6C136 48.6 136.2 48.6 136.3 48.5C136.5 48.4 136.6 48.3 136.7 48.2C136.8 48.1 136.9 47.9 137 47.7C137.1 47.5 137.1 47.2 137.1 47V46H135.8V44.5H139V49.9H137.5V49C137.3 49.4 137 49.6 136.6 49.8C136.2 50 135.8 50.1 135.4 50C134.9 50 134.4 49.9 133.9 49.7C133.5 49.5 133.2 49.1 133 48.7C132.8 48.2 132.6 47.6 132.6 47.1C132.5 46.3 132.5 45.6 132.5 44.8C132.5 44.1 132.5 43.3 132.7 42.6C132.8 42 133 41.5 133.3 41C133.5 40.6 133.9 40.3 134.3 40C134.8 39.8 135.3 39.7 135.9 39.7C136.8 39.6 137.6 39.9 138.3 40.5C138.8 41.2 139.1 42 139 42.8H137C137 42.7 136.9 42.5 136.9 42.3Z" fill="#1D1D1B"/>
<path d="M143.2 43.8L144.6 40H146.8L144.2 46V49.9H142.2V46L139.6 40H141.9L143.2 43.8Z" fill="#1D1D1B"/>
<path d="M0 55.3L60.4 65.9L70.1 10.7L9.7 0.0999756L0 55.3Z" fill="#DA291C"/>
<path d="M4.3999 5H65.6999V61H4.3999V5Z" fill="white"/>
<path d="M65.6999 16.3V5H4.3999V44.5H17.8999C18.4999 44.5 18.9999 44.4 19.5999 44.4C20.2999 44.3 20.9999 44.1 21.5999 43.8C22.1999 43.5 22.7999 43.1 23.1999 42.6C23.5999 42 23.8999 41.3 23.7999 40.6C23.7999 39.8 23.4999 39 22.9999 38.5C22.3999 37.9 21.5999 37.4 20.7999 37.1C19.7999 36.7 18.7999 36.4 17.6999 36.2C16.5999 35.9 15.3999 35.6 14.1999 35.3C12.9999 35 11.7999 34.6 10.6999 34.2C9.5999 33.8 8.5999 33.2 7.5999 32.5C6.6999 31.8 5.8999 30.9 5.3999 29.9C4.7999 28.7 4.4999 27.4 4.5999 26.1C4.5999 24.6 4.8999 23.1 5.6999 21.8C6.3999 20.6 7.2999 19.6 8.4999 18.7C9.6999 17.9 10.9999 17.3 12.3999 16.9C13.5999 16.6 14.7999 16.4 15.9999 16.3H30.3999L29.4999 21.8H15.8999C15.4999 21.8 14.9999 21.9 14.5999 22C13.9999 22.1 13.4999 22.3 12.9999 22.6C12.4999 22.9 12.1999 23.3 11.7999 23.7C11.4999 24.2 11.2999 24.8 11.2999 25.4C11.2999 25.9 11.3999 26.5 11.6999 26.9C12.0999 27.4 12.5999 27.8 13.0999 28C14.0999 28.4 14.9999 28.7 15.9999 29C17.2999 29.3 18.8999 29.8 20.8999 30.3C21.4999 30.4 22.2999 30.6 23.3999 31C24.4999 31.3 25.5999 31.9 26.5999 32.5C27.6999 33.2 28.5999 34.2 29.2999 35.3C30.0999 36.6 30.4999 38.2 30.4999 39.8C30.4999 41.2 30.1999 42.6 29.5999 43.9C28.9999 45.2 28.0999 46.3 26.9999 47.2C25.6999 48.2 24.2999 48.9 22.7999 49.4C21.0999 49.9 19.2999 50.1 17.5999 50.2H4.3999V61.2H65.6999V22.3H56.5999V49.9H49.4999V22.3H42.0999L43.2999 16.3H65.6999ZM39.4999 23.4V49.7H32.3999V24.6L39.4999 23.4Z" fill="#1D1D1B"/>
<path d="M39.8001 18.8C39.8001 20.8 38.2001 22.4 36.2001 22.4C34.2001 22.4 32.6001 20.8 32.6001 18.8C32.6001 16.8 34.2001 15.2 36.2001 15.2C38.2001 15.2 39.8001 16.8 39.8001 18.8Z" fill="#EE3124"/>
</g>
<defs>
<clipPath id="clip0_8_88">
<rect width="147" height="66" fill="white"/>
</clipPath>
</defs>
</svg>
