<svg width="100" height="100" viewBox="0 0 100 100" fill="none" xmlns="http://www.w3.org/2000/svg">
<path d="M72.4651 47.6322C71.709 48.6403 70.7009 49.9509 70.1968 50.5054C69.4407 51.5135 68.8862 51.6143 62.1316 51.7656L54.9234 51.9168L52.1005 54.8908C50.5379 56.5543 48.9753 57.9153 48.6224 57.9153C48.2192 57.9153 46.6565 56.5543 45.1443 54.8908L42.3215 51.8664H36.3734H30.4254L28.5603 53.9835C24.0236 59.0746 24.1244 59.0746 20.1927 54.2355L18.2772 51.8664H14.547C10.8673 51.8664 10.7665 51.9168 8.59897 53.8827C4.81842 57.3608 5.07046 59.2259 9.95997 63.8633L12.7828 66.4845L39.902 66.5349C54.8225 66.5349 67.4748 66.7366 67.9789 66.9382C68.5333 67.1398 70.348 69.3073 72.0115 71.7773C73.7253 74.2473 75.6408 76.566 76.3465 76.9189C77.2034 77.3221 80.0262 77.5741 84.7645 77.5741C94.6948 77.5741 93.9891 78.8343 93.9891 61.3934C93.9891 48.4891 93.9387 47.7834 92.9809 46.8256C92.0232 45.8679 91.3175 45.8175 82.8994 45.8175H73.8765L72.4651 47.6322ZM87.6377 51.6648C87.789 52.1184 87.9402 56.8063 87.9402 62.1495C87.9402 72.3822 87.789 73.0375 85.6214 73.0375C82.849 73.0375 82.8994 73.2391 82.8994 61.9983C82.8994 56.2518 83.0507 51.3623 83.2523 51.2111C83.958 50.5054 87.3353 50.8582 87.6377 51.6648Z" fill="white"/>
<path d="M70.6106 32.465C70.7621 32.3009 70.8798 32.1022 70.9558 31.8825C71.0318 31.6628 71.0641 31.4273 71.0507 31.1923C71.0372 30.9573 70.9783 30.7283 70.8779 30.5212C70.7774 30.314 70.638 30.1336 70.469 29.9924C64.0482 24.7841 56.3102 21.9854 48.3712 22.0001C40.1157 22.0001 32.4777 24.9632 26.2733 29.9924C26.1042 30.1334 25.9645 30.3136 25.8638 30.5206C25.7631 30.7276 25.7038 30.9565 25.6901 31.1915C25.6764 31.4266 25.7085 31.6621 25.7842 31.8819C25.8599 32.1018 25.9775 32.3007 26.1288 32.465C26.3926 32.753 26.7391 32.9278 27.1072 32.9585C27.4753 32.9892 27.8413 32.8739 28.1407 32.633C34.0294 27.8931 41.1093 25.3476 48.3712 25.3596C55.9219 25.3596 62.9093 28.0539 68.5987 32.6296C69.2161 33.1268 70.0745 33.0664 70.6106 32.465Z" fill="white"/>
<path d="M64.1814 39.3644C64.3372 39.1995 64.4575 38.9985 64.5336 38.7761C64.6098 38.5538 64.6398 38.3156 64.6216 38.0788C64.6034 37.8421 64.5373 37.6128 64.4282 37.4076C64.3191 37.2024 64.1697 37.0265 63.9909 36.8926C59.3418 33.5795 53.9155 31.8205 48.3722 31.8295C42.6126 31.8295 37.2461 33.6875 32.7534 36.8926C32.5737 37.0257 32.4234 37.2013 32.3137 37.4066C32.2039 37.6118 32.1374 37.8414 32.1192 38.0785C32.1009 38.3156 32.1313 38.5542 32.2081 38.7767C32.2849 38.9993 32.4061 39.2001 32.5629 39.3644C32.8205 39.6404 33.156 39.812 33.5141 39.8512C33.8723 39.8904 34.232 39.7948 34.5342 39.5801C38.6642 36.6771 43.4676 35.1384 48.3722 35.1474C53.2756 35.1391 58.078 36.6777 62.2071 39.5801C62.8299 40.0181 63.6583 39.9384 64.1814 39.3644ZM57.5813 46.6074C58.2646 45.8576 58.1407 44.6001 57.279 44.119C54.5191 42.5815 51.4673 41.7812 48.3722 41.7832C45.1674 41.7832 42.138 42.626 39.4653 44.119C38.6036 44.6001 38.4797 45.8576 39.163 46.6074L39.2083 46.6572C39.6921 47.1881 40.4388 47.2876 41.0556 46.9558C43.3337 45.7334 45.8363 45.099 48.3722 45.1011C50.9964 45.1011 53.4817 45.768 55.6887 46.9591C56.3025 47.2909 57.0492 47.1914 57.533 46.6572L57.5813 46.6074Z" fill="white"/>
</svg>
