<svg width="78" height="53" viewBox="0 0 78 53" fill="none" xmlns="http://www.w3.org/2000/svg">
<rect x="9.46228" width="58.3082" height="52.1705" fill="white"/>
<mask id="mask0_1_73" style="mask-type:alpha" maskUnits="userSpaceOnUse" x="0" y="0" width="78" height="53">
<rect width="78" height="52.1705" fill="white"/>
</mask>
<g mask="url(#mask0_1_73)">
<path d="M0 26.0853V52.1705H39.0426H78.0853V26.0853V1.14441e-05H39.0426H0V26.0853ZM38.838 3.75083C38.7016 5.35345 38.4971 7.53575 38.3948 8.5928L38.1902 10.5364L42.4525 12.9574C44.8053 14.2872 46.7148 15.4125 46.7148 15.4466C46.7148 15.4807 44.1574 15.4807 41.0203 15.4125L35.2918 15.2761L33.28 18.9246C32.1889 20.9023 31.2 22.4708 31.0977 22.3685C31.0295 22.2662 30.6885 20.5954 30.3816 18.6859L29.8361 15.1738L24.4826 14.3213C21.5502 13.8439 19.061 13.3666 18.9587 13.2984C18.8905 13.1961 21.141 12.4459 23.9711 11.6276C26.8354 10.8092 29.2223 10.0931 29.2564 10.0249C29.3246 9.99083 29.0518 8.4564 28.6426 6.64919C28.1993 4.87608 27.9266 3.30755 28.0289 3.23935C28.0971 3.13706 29.2223 3.85312 30.4839 4.77378L32.8026 6.4787L35.9056 3.58034C37.6105 2.01181 39.0426 0.750175 39.0767 0.784271C39.0767 0.818371 39.0085 2.1482 38.838 3.75083ZM16.6741 18.7541C17.322 18.9246 18.72 19.8453 19.8111 20.8C21.1751 21.9935 22.5049 22.7777 23.9371 23.2551C26.5967 24.1416 26.8013 24.278 27.8243 26.3239L28.6426 27.9607L27.381 30.518C26.1193 33.0754 26.1193 33.0754 24.7213 33.0754C23.562 33.0754 23.221 33.2459 22.4026 34.2689C21.2433 35.701 19.743 36.0761 17.9698 35.3259C17.2879 35.0531 16.5377 34.4394 16.299 33.962C15.9239 33.1095 15.8216 33.0754 12.8892 33.0754C9.92262 33.0754 9.85443 33.0413 9.95672 32.2912C10.059 31.5751 10.2295 31.541 13.6734 31.4387C17.322 31.3364 17.322 31.3364 17.5266 32.223C17.6289 32.6662 18.1403 33.3141 18.6177 33.621C19.743 34.3712 21.0387 33.8256 21.5502 32.3935C21.8571 31.4387 22.0275 31.3705 23.4938 31.3705C25.0964 31.3705 25.1305 31.3705 25.9148 29.6315L26.7331 27.8925L26.0852 26.6649C25.5056 25.6079 25.0623 25.3351 23.221 24.7213C21.6525 24.2439 20.4931 23.5961 19.2656 22.4367C17.0151 20.3908 16.2649 20.118 12.7528 20.118C10.1954 20.118 9.88853 20.0498 9.88853 19.5043C9.88853 19.1633 9.99082 18.7541 10.1272 18.6518C10.4682 18.2767 15.3784 18.379 16.6741 18.7541ZM55.0007 18.8905C55.6144 19.1292 56.7738 19.9476 57.6262 20.6977C59.3653 22.2321 60.4564 22.8459 62.9115 23.6643C64.4118 24.1416 64.7187 24.4144 65.5712 26.0171L66.4918 27.8243L65.2984 30.4498C64.1049 33.0072 64.0708 33.0754 62.8433 33.0754C61.8544 33.0754 61.4112 33.3141 60.5246 34.3712C59.5357 35.4964 59.2289 35.6328 57.7967 35.6328C56.3646 35.6328 56.0577 35.4964 55.0689 34.3371L53.9777 33.0754H48.4879C43.2367 33.0754 42.998 33.1095 42.7934 33.7915C42.5207 34.6439 40.7134 35.8033 39.6223 35.8033C38.3948 35.8033 36.8944 34.8826 36.3148 33.7915C36.0079 33.1436 35.4282 32.7003 34.7803 32.5639C33.9279 32.3594 33.5528 31.9502 32.598 30.0407L31.4387 27.7902L32.2571 26.358C33.1777 24.8236 32.9731 24.8918 39.861 23.8348C42.3502 23.4597 42.3843 23.4597 44.4302 21.2433C45.5895 20.0157 46.8512 18.8905 47.2262 18.72C48.3856 18.2767 53.8072 18.379 55.0007 18.8905ZM41.6 39.0426V40.5771H49.9541H58.3082V43.9869V47.3967H49.9882H41.6341L41.5318 49.1357L41.4295 50.9089L37.781 47.5672C35.7351 45.76 34.0984 44.1574 34.1325 44.021C34.1666 43.7141 41.0203 37.5423 41.3613 37.5082C41.4977 37.5082 41.6 38.1902 41.6 39.0426Z" fill="#FF3F06"/>
<path d="M47.7377 20.3908C47.465 20.5272 46.3738 21.5502 45.3509 22.6754C44.3279 23.8007 43.3391 24.8236 43.2027 24.9259C43.0322 25.0282 40.9181 25.4374 38.463 25.7784C34.4394 26.3239 33.9961 26.4603 33.6551 27.1764C33.3823 27.8243 33.4505 28.3016 33.9961 29.461C34.644 30.7226 34.9168 30.9613 36.0761 31.1659C37.2354 31.3364 37.44 31.5069 37.6446 32.3934C38.0197 34.4052 41.1227 34.4052 41.6 32.3934L41.8046 31.541L48.6584 31.4387L55.4781 31.3705L55.6827 32.3252C55.9554 33.7233 57.6263 34.4052 58.8197 33.621C59.263 33.3141 59.7404 32.7003 59.8768 32.2229C60.0472 31.4728 60.2859 31.3705 61.5135 31.3705C62.9115 31.3705 62.9797 31.3023 63.8322 29.5633L64.6846 27.7902L63.9345 26.5626C63.2866 25.6079 62.7751 25.2328 61.0702 24.7213C59.6381 24.3121 58.4787 23.6302 57.2171 22.5049C56.2282 21.6184 54.8984 20.7318 54.2505 20.5272C53.023 20.0839 48.5902 20.0157 47.7377 20.3908Z" fill="#FF3F06"/>
</g>
</svg>
