<svg width="100" height="100" viewBox="0 0 100 100" fill="none" xmlns="http://www.w3.org/2000/svg">
<path d="M69.386 17.4425V22.8347L72.0569 23.8426C73.4679 24.3969 74.8285 24.9008 75.0805 25.0016C75.2821 25.1024 75.4332 22.2299 75.4332 18.6016V12H72.4096H69.386V17.4425Z" fill="white"/>
<path d="M20 18.5512V24.5984H23.0236H26.0473V18.5512V12.5039H23.0236H20V18.5512Z" fill="white"/>
<path d="M61.4739 24.1449C60.2645 24.4976 59.3574 25.3543 58.148 27.2693C54.6708 32.6614 47.918 45.2095 43.181 55.0363C34.9164 72.1198 34.0093 74.3875 34.9164 76.7056C35.37 77.8647 41.518 81.5434 48.4219 84.819C55.5779 88.2458 57.0393 88.5482 58.9039 87.1371C62.5322 84.2647 84 41.5307 84 37.1465C84 35.0299 82.9417 33.2158 80.3212 30.7969C75.3322 26.211 65.9086 22.885 61.4739 24.1449ZM72.0062 29.0835C73.8708 29.9402 76.6425 31.8551 78.2047 33.2662C81.7826 36.4914 81.7826 36.3402 76.9448 47.0741C71.3511 59.4709 58.1983 84.2647 56.9889 84.7686C55.4267 85.3733 37.6377 76.2521 37.6377 74.8914C37.6377 72.3717 55.4267 37.0457 60.7684 28.9323L62.0283 27.0173L65.3543 27.2189C67.6724 27.4205 69.6881 27.9748 72.0062 29.0835Z" fill="white"/>
<path d="M57.896 40.8252C57.5432 41.178 57.2913 42.841 57.2913 44.7056V48.0316L61.9779 50.4001C64.5984 51.7607 66.8661 52.819 67.0677 52.819C67.6724 52.819 72.9133 48.6867 72.9133 48.2331C72.9133 47.1749 68.5795 43.1938 66.1606 42.0347C63.0865 40.5733 58.8031 39.9182 57.896 40.8252Z" fill="white"/>
<path d="M44.2898 68.2899C40.7118 70.4064 41.2662 71.1119 49.8331 75.4962C58.4504 79.8301 58.904 79.8301 58.3497 75.0427L58.0473 72.271L52.8063 69.6001C49.9339 68.1387 47.3134 66.9292 47.011 66.9292C46.7087 66.9796 45.4992 67.534 44.2898 68.2899Z" fill="white"/>
<path d="M20 34.4253V40.7245H23.0236H26.0473V34.4253V28.126H23.0236H20V34.4253Z" fill="white"/>
<path d="M20 50.0473V56.3465H23.0236H26.0473V50.0473V43.7481H23.0236H20V50.0473Z" fill="white"/>
<path d="M20 66.1733V72.4726H23.0236H26.0473V66.1733V59.8741H23.0236H20V66.1733Z" fill="white"/>
<path d="M72.2584 67.6851L69.386 73.4804V80.7875V88.0946H72.4096H75.4332V74.9922C75.4332 67.7859 75.3828 61.8898 75.2821 61.8898C75.2317 61.8898 73.871 64.5103 72.2584 67.6851Z" fill="white"/>
<path d="M20.3528 75.7985C20.1512 76.0001 20 78.8725 20 82.1481V88.0946H23.0236H26.0976L25.9465 81.8962L25.7953 75.7481L23.2756 75.5969C21.8646 75.4962 20.5543 75.5969 20.3528 75.7985Z" fill="white"/>
</svg>
